<?xml version="1.0" encoding="UTF-8"?>
<!DOCTYPE svg PUBLIC "-//W3C//DTD SVG 1.1//EN" "http://www.w3.org/Graphics/SVG/1.1/DTD/svg11.dtd" [
  <!ENTITY fill_color "#FFFFFF">
  <!ENTITY stroke_color "#010101">
]>
<svg
   xmlns="http://www.w3.org/2000/svg"
   version="1.1"
   width="55"
   height="55"
   viewBox="0 0 55 55"
   id="svg2"
   xml:space="preserve"><g
     id="g3830"><g
       transform="matrix(0.55205508,0,0,0.55205508,75.618464,18.235971)"
       id="g4382"><g
         transform="translate(-80.093659,12.220029)"
         id="g4308"
         style="fill:none;stroke:&fill_color;;stroke-opacity:1">
			<g
   id="g4310"
   style="fill:none;stroke:&fill_color;;stroke-opacity:1">
				<path
   d="m 6.736,49.002 h 24.52 c 2.225,0 3.439,-1.447 3.439,-3.441 v -27.28 c 0,-1.73 -1.732,-3.441 -3.439,-3.441 h -4.389"
   id="path4312"
   style="fill:none;stroke:&fill_color;;stroke-width:3.5;stroke-linecap:round;stroke-linejoin:round;stroke-opacity:1" />
			</g>
		</g><g
         transform="translate(-80.093659,12.220029)"
         id="g4314"
         style="fill:none;stroke:&fill_color;;stroke-opacity:1">
			<g
   id="g4316"
   style="fill:none;stroke:&fill_color;;stroke-opacity:1">
				<path
   d="m 26.867,38.592 c 0,1.836 -1.345,3.201 -3.441,4.047 L 6.736,49.002 V 14.84 l 16.69,-8.599 c 2.228,-0.394 3.441,0.84 3.441,2.834 v 29.517 z"
   id="path4318"
   style="fill:none;stroke:&fill_color;;stroke-width:3.5;stroke-linecap:round;stroke-linejoin:round;stroke-opacity:1" />
			</g>
		</g><path
         d="m -70.669659,54.827029 c 0,0 -1.351,-0.543 -2.702,-0.543 -1.351,0 -2.703,0.543 -2.703,0.543"
         id="path4320"
         style="fill:none;stroke:&fill_color;;stroke-width:2.25;stroke-linecap:round;stroke-linejoin:round;stroke-opacity:1" /><path
         d="m -70.669659,44.226029 c 0,0 -1.239,-0.543 -2.815,-0.543 -1.577,0 -2.59,0.543 -2.59,0.543"
         id="path4322"
         style="fill:none;stroke:&fill_color;;stroke-width:2.25;stroke-linecap:round;stroke-linejoin:round;stroke-opacity:1" /><path
         d="m -70.669659,33.898029 c 0,0 -1.125,-0.544 -2.927,-0.544 -1.802,0 -2.478,0.544 -2.478,0.544"
         id="path4324"
         style="fill:none;stroke:&fill_color;;stroke-width:2.25;stroke-linecap:round;stroke-linejoin:round;stroke-opacity:1" /><line
         id="line4326"
         y2="23.725029"
         y1="58.753029"
         x2="-66.884659"
         x1="-66.884659"
         style="fill:none;stroke:&fill_color;;stroke-width:2.25;stroke-linecap:round;stroke-linejoin:round;stroke-opacity:1" /></g><g
       transform="matrix(1,0,0,-1,-30.386573,49.171266)"
       id="g4770"><g
         transform="translate(34.0803,-1006.42)"
         id="g4772"><polyline
           id="polyline4774"
           points="51.562,15.306 41.17,16.188 42.053,5.794"
           style="fill:none;stroke:&fill_color;;stroke-width:3.5;stroke-linecap:round;stroke-linejoin:round"
           transform="matrix(-0.469241,0.469241,-0.469241,-0.469241,66.2906,1019.03)" /><path
           d="m 39.363241,1033.1291 -0.05636,9.9115 -8.750608,0.067"
           id="path4776"
           style="fill:none;stroke:&fill_color;;stroke-width:2.5;stroke-linecap:round;stroke-linejoin:round;stroke-miterlimit:4;stroke-opacity:1;stroke-dasharray:none" /></g></g></g><g
     transform="translate(-11.834288,-11.628123)"
     id="g4709"
     style="fill:none;stroke:&fill_color;"><path
       d="m 28.090497,40.381834 c 3.974667,-0.06221 9.878139,-1.753708 9.878139,-6.911631 0,-5.73755 -4.497322,-6.751378 -6.645938,-7.265877 -2.341015,-0.560569 -4.551388,-0.765446 -4.645545,-1.7177 -0.161426,-1.632578 0.768742,-2.268447 2.619566,-2.268447 0,0 4.402457,2.26367 8.142826,0.457274 1.05398,-0.509016 2.942197,-2.884533 2.942197,-4.523303 0,-1.639388 -6.094837,-3.533985 -7.944332,-3.533985 -1.850824,0 -3.424821,2.377206 -3.424821,2.377206 -3.700318,0 -7.401302,3.278776 -7.401302,6.557553 0,3.278158 3.417627,6.165937 7.653709,6.85261 1.962616,0.318142 3.729994,1.076753 3.3563,3.065286 -0.303435,1.614661 -1.696316,2.770905 -5.258386,2.736319 -2.749295,-0.02669 -6.417645,0.138525 -8.840139,-1.714654 -1.314772,-1.005784 -1.146531,-3.578075 -1.146531,-3.578075 0,0 -3.4034,0.162415 -2.757976,3.376412 0.965274,4.806741 6.251099,6.204027 13.472233,6.091012 z"
       id="path2474-6"
       style="fill:none;stroke:&fill_color;;stroke-width:2.5;stroke-linecap:round;stroke-linejoin:miter;stroke-miterlimit:4;stroke-opacity:1;stroke-dasharray:none" /><path
       d="M 37.438881,22.676071 C 35.697593,22.498722 33.050146,21.440194 32.481887,19.572788"
       id="path2476-1"
       style="fill:none;stroke:&fill_color;;stroke-width:1.5;stroke-linecap:round;stroke-miterlimit:4;stroke-opacity:1;stroke-dasharray:none" /><circle
       cx="35.805"
       cy="10.96"
       r="1.676"
       transform="matrix(0.3489205,0,0,0.32478716,20.448838,13.620467)"
       id="circle2478-8"
       style="fill:none;stroke:&fill_color;;stroke-width:3.42034841;stroke-miterlimit:4;stroke-dasharray:none" /></g></svg>