<?xml version="1.0" encoding="UTF-8" standalone="no"?>
<!-- Created with Inkscape (http://www.inkscape.org/) -->

<svg
   xmlns:dc="http://purl.org/dc/elements/1.1/"
   xmlns:cc="http://creativecommons.org/ns#"
   xmlns:rdf="http://www.w3.org/1999/02/22-rdf-syntax-ns#"
   xmlns:svg="http://www.w3.org/2000/svg"
   xmlns="http://www.w3.org/2000/svg"
   version="1.1"
   width="55"
   height="55"
   viewBox="0 0 55 55"
   id="Icon"
   xml:space="preserve"
   style="overflow:visible"><metadata
     id="metadata17"><rdf:RDF><cc:Work
         rdf:about=""><dc:format>image/svg+xml</dc:format><dc:type
           rdf:resource="http://purl.org/dc/dcmitype/StillImage" /><dc:title></dc:title></cc:Work></rdf:RDF></metadata><defs
     id="defs15" /><circle
     cx="35.805"
     cy="10.96"
     r="1.676"
     transform="matrix(0.66385342,0,0,0.61793751,-2.1883406,-1.1658202)"
     id="circle2478"
     style="fill:none;stroke:#ffffff;stroke-width:3.12263775;stroke-linecap:round;stroke-miterlimit:4;stroke-opacity:1;stroke-dasharray:none" /><g
     transform="matrix(1,0,0,-1,-30.386574,49.171266)"
     id="g4770"
     style="stroke:#ffffff;stroke-width:2;stroke-linecap:round;stroke-miterlimit:4;stroke-opacity:1;stroke-dasharray:none"><g
       transform="translate(34.0803,-1006.42)"
       id="g4772"
       style="stroke:#ffffff;stroke-width:2;stroke-linecap:round;stroke-miterlimit:4;stroke-opacity:1;stroke-dasharray:none"><polyline
         transform="matrix(-0.469241,0.469241,-0.469241,-0.469241,66.2906,1019.03)"
         style="fill:none;stroke:#ffffff;stroke-width:3.01383209;stroke-linecap:round;stroke-miterlimit:4;stroke-opacity:1;stroke-dasharray:none"
         points="51.562,15.306 41.17,16.188 42.053,5.794"
         id="polyline4774" /><path
         d="m 39.363241,1033.1291 -0.05636,9.9115 -8.750608,0.067"
         id="path4776"
         style="fill:none;stroke:#ffffff;stroke-width:2;stroke-linecap:round;stroke-miterlimit:4;stroke-opacity:1;stroke-dasharray:none" /></g></g><g
     transform="translate(-11.83429,-11.628123)"
     id="g4709"
     style="fill:none;stroke:#ffffff;stroke-width:2;stroke-linecap:round;stroke-miterlimit:4;stroke-opacity:1;stroke-dasharray:none"><path
       d="m 28.090497,40.381834 c 3.974667,-0.06221 9.878139,-1.753708 9.878139,-6.911631 0,-5.73755 -4.497322,-6.751378 -6.645938,-7.265877 -2.341015,-0.560569 -4.551388,-0.765446 -4.645545,-1.7177 -0.161426,-1.632578 0.768742,-2.268447 2.619566,-2.268447 0,0 4.402457,2.26367 8.142826,0.457274 1.05398,-0.509016 2.942197,-2.884533 2.942197,-4.523303 0,-1.639388 -6.094837,-3.533985 -7.944332,-3.533985 -1.850824,0 -3.424821,2.377206 -3.424821,2.377206 -3.700318,0 -7.401302,3.278776 -7.401302,6.557553 0,3.278158 3.417627,6.165937 7.653709,6.85261 1.962616,0.318142 3.729994,1.076753 3.3563,3.065286 -0.303435,1.614661 -1.696316,2.770905 -5.258386,2.736319 -2.749295,-0.02669 -6.417645,0.138525 -8.840139,-1.714654 -1.314772,-1.005784 -1.146531,-3.578075 -1.146531,-3.578075 0,0 -3.4034,0.162415 -2.757976,3.376412 0.965274,4.806741 6.251099,6.204027 13.472233,6.091012 z"
       id="path2474-6"
       style="fill:none;stroke:#ffffff;stroke-width:2;stroke-linecap:round;stroke-miterlimit:4;stroke-opacity:1;stroke-dasharray:none" /><path
       d="M 37.438881,22.676071 C 35.697593,22.498722 33.050146,21.440194 32.481887,19.572788"
       id="path2476-1"
       style="fill:none;stroke:#ffffff;stroke-width:2;stroke-linecap:round;stroke-miterlimit:4;stroke-opacity:1;stroke-dasharray:none" /><circle
       cx="35.805"
       cy="10.96"
       r="1.676"
       transform="matrix(0.3489205,0,0,0.32478716,20.448838,13.620467)"
       id="circle2478-8"
       style="fill:none;stroke:#ffffff;stroke-width:5.94110632;stroke-linecap:round;stroke-miterlimit:4;stroke-opacity:1;stroke-dasharray:none" /></g><polygon
     points="31.874,6.088 43.818,18.027 43.818,48.914 10.932,48.914 10.932,6.088 "
     transform="matrix(0.57043764,0,0,0.57043764,27.123144,25.347613)"
     id="polygon9"
     style="fill:none;stroke:#ffffff;stroke-width:2.62955999;stroke-miterlimit:4;stroke-opacity:1;stroke-dasharray:none" /><polyline
     id="polyline11"
     points="43.818,18.027 31.874,18.027 31.874,6.088    "
     style="fill:none;stroke:#ffffff;stroke-width:2.62955999;stroke-miterlimit:4;stroke-opacity:1;stroke-dasharray:none"
     transform="matrix(0.57043764,0,0,0.57043764,27.123144,25.347613)" /><path
     d="m 42.788977,49.853753 c 1.647156,0 4.093132,-0.780667 4.093132,-3.076727 0,-2.554081 -2.129913,-2.790096 -3.013183,-3.048668 -0.976245,-0.219786 -1.626525,-0.526495 -1.665586,-0.950388 -0.06684,-0.726751 0.318538,-1.009804 1.085451,-1.009804 0,0 1.824304,1.007879 3.374083,0.203556 0.436821,-0.226387 1.219137,-1.284055 1.219137,-2.013557 0,-0.729776 -2.525473,-1.57316 -3.291835,-1.57316 -0.766913,0 -1.419118,1.058218 -1.419118,1.058218 -1.533274,0 -3.066823,1.459553 -3.066823,2.919107 0,1.459279 1.466981,2.600844 3.220315,2.919108 0.815051,0.12901 1.49669,0.610668 1.341821,1.495863 -0.125709,0.718775 -0.823852,1.459554 -2.299911,1.459554 -1.169623,0 -3.658512,-0.06024 -4.055997,-1.122035 -0.255545,-0.683839 0.04621,-1.431771 0.429669,-1.431771 l -0.0074,-0.04402 c -0.390608,-0.04346 -1.526122,0.04402 -1.526122,1.503291 -2.75e-4,1.871068 2.515296,2.711425 5.582394,2.711425 z"
     id="path3086"
     style="fill:none;stroke:#ffffff;stroke-width:1;stroke-miterlimit:4;stroke-opacity:1;stroke-dasharray:none" /><path
     d="m 46.662599,41.971997 c -0.721525,-0.07895 -1.818528,-0.550152 -2.053993,-1.381432"
     id="path3088"
     style="fill:none;stroke:#ffffff;stroke-width:1.5;stroke-miterlimit:4;stroke-opacity:1;stroke-dasharray:none" /><circle
     cx="35.805"
     cy="10.96"
     r="1.676"
     transform="matrix(0.27507609,0,0,0.27507609,34.950134,36.510637)"
     id="circle3090"
     style="fill:none;stroke:#ffffff;stroke-width:5.45303679;stroke-miterlimit:4;stroke-opacity:1;stroke-dasharray:none" /></svg>