<?xml version="1.0" ?><!-- Created with Inkscape (http://www.inkscape.org/) --><!DOCTYPE svg  PUBLIC '-//W3C//DTD SVG 1.1//EN'  'http://www.w3.org/Graphics/SVG/1.1/DTD/svg11.dtd' [
	<!ENTITY stroke_color "#666666">
	<!ENTITY fill_color "#ffffff">
]><svg height="55" id="svg1756" inkscape:version="0.92.4 (unknown)" sodipodi:docname="pippy-collect.svg" version="1.1" viewBox="0 0 14.552083 14.552084" width="55" xmlns="http://www.w3.org/2000/svg" xmlns:cc="http://creativecommons.org/ns#" xmlns:dc="http://purl.org/dc/elements/1.1/" xmlns:inkscape="http://www.inkscape.org/namespaces/inkscape" xmlns:rdf="http://www.w3.org/1999/02/22-rdf-syntax-ns#" xmlns:sodipodi="http://sodipodi.sourceforge.net/DTD/sodipodi-0.dtd" xmlns:svg="http://www.w3.org/2000/svg">
  <defs id="defs1750"/>
  <sodipodi:namedview bordercolor="#666666" borderopacity="1.0" id="base" inkscape:current-layer="layer1" inkscape:cx="24.258817" inkscape:cy="26.682316" inkscape:document-units="mm" inkscape:pageopacity="0.0" inkscape:pageshadow="2" inkscape:snap-global="false" inkscape:window-height="702" inkscape:window-maximized="1" inkscape:window-width="1366" inkscape:window-x="0" inkscape:window-y="36" inkscape:zoom="11.2" pagecolor="#ffffff" showgrid="false" units="px"/>
  <metadata id="metadata1753">
    <rdf:RDF>
      <cc:Work rdf:about="">
        <dc:format>image/svg+xml</dc:format>
        <dc:type rdf:resource="http://purl.org/dc/dcmitype/StillImage"/>
        <dc:title/>
      </cc:Work>
    </rdf:RDF>
  </metadata>
  <g id="layer1" inkscape:groupmode="layer" inkscape:label="Layer 1" transform="translate(0,-282.4479)">
    <g id="g3005" transform="matrix(0.85087045,0,0,0.85087045,-1.071627,35.113386)">
      <path d="m 9.336117,304.44728 c 0,0 -0.402123,0 -0.402123,-0.40212 v -2.6138 l 3.920699,-2.21167 3.920698,2.21167 v 2.6138 c 0,0 0,0.40212 -0.402123,0.40212 z" id="path2" inkscape:connector-curvature="0" style="fill:none;stroke:&stroke_color;;stroke-width:0.35185757;stroke-opacity:1"/>
      <path d="m 11.888804,298.70157 -3.719326,2.07466 c -0.426633,0.22817 -0.254659,0.87592 0.228966,0.86242 v 6e-4 c 0.07708,-0.002 0.152487,-0.0228 0.219248,-0.0613 l 4.210661,-2.35221 4.083728,2.27812 c 0.547884,0.35316 1.033868,-0.51936 0.445177,-0.79926 l -3.588141,-2.0042 -0.938335,-0.52414 z" id="line14" inkscape:connector-curvature="0" sodipodi:nodetypes="ccccccccccc" style="color:#000000;font-style:normal;font-variant:normal;font-weight:normal;font-stretch:normal;font-size:medium;line-height:normal;font-family:sans-serif;font-variant-ligatures:normal;font-variant-position:normal;font-variant-caps:normal;font-variant-numeric:normal;font-variant-alternates:normal;font-feature-settings:normal;text-indent:0;text-align:start;text-decoration:none;text-decoration-line:none;text-decoration-style:solid;text-decoration-color:#000000;letter-spacing:normal;word-spacing:normal;text-transform:none;writing-mode:lr-tb;direction:ltr;text-orientation:mixed;dominant-baseline:auto;baseline-shift:baseline;text-anchor:start;white-space:normal;shape-padding:0;clip-rule:nonzero;display:inline;overflow:visible;visibility:visible;opacity:1;isolation:auto;mix-blend-mode:normal;color-interpolation:sRGB;color-interpolation-filters:linearRGB;solid-color:#000000;solid-opacity:1;vector-effect:none;fill:none;fill-opacity:1;fill-rule:nonzero;stroke:&stroke_color;;stroke-width:0.30465612;stroke-linecap:round;stroke-linejoin:miter;stroke-miterlimit:4;stroke-dasharray:none;stroke-dashoffset:0;stroke-opacity:1;color-rendering:auto;image-rendering:auto;shape-rendering:auto;text-rendering:auto;enable-background:accumulate"/>
      <path d="m 10.912829,295.40166 v 3.82701 l 0.975715,-0.52736 0.941978,-0.52534 0.938334,0.52413 0.952849,0.51863 v -3.81707 z" id="path16" inkscape:connector-curvature="0" sodipodi:nodetypes="cccccccc" style="fill:none;stroke:&stroke_color;;stroke-width:0.34670374;stroke-miterlimit:4;stroke-dasharray:none;stroke-opacity:1"/>
      <path d="m 10.860126,295.40432 2.035524,-1.17956 2.035523,1.17956 z" id="path18" inkscape:connector-curvature="0" style="fill:&stroke_color;;fill-opacity:1;stroke:&stroke_color;;stroke-width:0.46178851;stroke-opacity:1"/>
      <g id="g891" transform="translate(-10.532315,5.6540353)">
        <path d="M 37.041016 16.658203 A 2.1014215 2.1014215 0 0 0 34.941406 18.759766 L 34.941406 20.216797 L 34.939453 20.216797 A 0.80831983 0.80831983 0 0 0 34.857422 20.216797 A 0.80831983 0.80831983 0 0 0 34.939453 21.830078 L 36.25 21.830078 A 0.80823902 0.80823902 0 0 1 36.25 21.832031 A 0.80823902 0.80823902 0 0 0 36.234375 21.994141 A 0.80823902 0.80823902 0 0 0 37.041016 22.800781 A 0.80823902 0.80823902 0 0 0 37.849609 21.994141 A 0.80823902 0.80823902 0 0 0 37.832031 21.830078 L 39.140625 21.830078 A 0.80831983 0.80831983 0 1 0 39.142578 20.216797 L 39.142578 18.759766 A 2.1014215 2.1014215 0 0 0 37.041016 16.658203 z " id="circle20" style="fill:&stroke_color;;stroke:none;stroke-width:1.29318237;fill-opacity:1" transform="matrix(0.31095607,0,0,0.31095607,11.791763,285.03007)"/>
      </g>
    </g>
    <path d="m 10.817019,294.04825 v -1.96782 c 0,0 0,-0.35779 -0.357786,-0.35779 H 9.2069825 c 0,0 -0.357786,0 -0.357786,0.35779 v 1.96782 z" id="path4" inkscape:connector-curvature="0" style="fill:none;stroke:&stroke_color;;stroke-width:0.20216294;stroke-miterlimit:4;stroke-dasharray:none;stroke-opacity:1"/>
    <path d="m 4.9039105,289.69667 c 0,0 1.6617248,0.17132 1.74738,-0.68524 0.085657,-0.85657 -0.4968027,-1.62747 -0.8565581,-1.74739 -0.3597547,-0.11991 -1.4390195,-0.23983 -1.970086,0.0514 -0.5310671,0.29123 -0.9764776,0.95935 -1.0963957,1.26772 -0.1199185,0.30836 -0.2227053,1.16491 0,1.66172 0.2227053,0.4968 1.1306581,1.38762 1.1306581,1.38762 0,0 -1.2334452,0.10279 -1.7816431,0.58247 -0.5481981,0.47967 -0.9593464,0.75376 -0.9079528,1.45614 0.051393,0.70238 0.5824601,1.21631 1.130658,1.3191 0.5481979,0.10279 1.6617249,0.32549 2.1756602,0.22271 0.5139353,-0.10279 1.7131176,-0.18844 2.004349,-0.56533 0.2912293,-0.37688 0.4111475,-1.13065 0.5653281,-1.23344 0.1541799,-0.10279 0.3597547,0.10279 0.394017,0.41115 0.034259,0.30836 0.051393,0.63385 0.2398373,0.73664 0.1884422,0.10279 0.7195097,0.56533 1.2677068,0.34262 0.5481978,-0.22271 0.8736907,-0.58246 0.8565601,-0.95935 -0.017136,-0.37688 -0.034256,-1.30196 -0.9422155,-1.66172 -0.9079526,-0.35976 -2.141398,-0.51394 -2.141398,-0.51394 0,0 -0.2227053,-0.47967 -0.6681159,-0.71951 -0.4454113,-0.23983 -1.0621336,-0.58246 -1.1649207,-0.7709 -0.102787,-0.18844 0.017133,-0.58246 0.017133,-0.58246 z" id="path1265-5" inkscape:connector-curvature="0" style="fill:&fill_color;;fill-opacity:1;stroke:none;stroke-width:0.03391801px;stroke-linecap:butt;stroke-linejoin:miter;stroke-opacity:1"/>
    <ellipse cx="5.1582479" cy="288.17889" id="path894-6-7-3-6" inkscape:export-xdpi="96" inkscape:export-ydpi="96" rx="0.22242011" ry="0.22327726" style="fill:#fffff8;fill-opacity:1;stroke:&stroke_color;;stroke-width:0.26687196;stroke-miterlimit:4;stroke-dasharray:none;stroke-opacity:1"/>
    <path d="m 4.6067138,288.7958 c 0,0 0.4625417,0.32549 0.8565588,0.39402 0.394017,0.0685 0.9336487,-0.0343 0.9336487,-0.0343" id="path896-2-0-6-5" inkscape:connector-curvature="0" inkscape:export-xdpi="96" inkscape:export-ydpi="96" sodipodi:nodetypes="csc" style="fill:none;fill-opacity:1;stroke:&stroke_color;;stroke-width:0.29035962;stroke-linecap:round;stroke-linejoin:miter;stroke-miterlimit:4;stroke-dasharray:none;stroke-opacity:1"/>
    <path d="m 4.9039105,289.69667 c 0,0 -0.4282794,0.49681 0.4625425,0.94221 0.8908204,0.44542 1.8249669,1.16096 1.6445921,2.60395 -0.1803733,1.44298 -0.8051645,1.66172 -1.6959864,1.8159 -0.8908211,0.15418 -2.9979565,0.35976 -3.7859911,-0.59959 -0.78803441,-0.95935 0.1027873,-2.19279 0.9422152,-2.50115 0.8394284,-0.30837 1.5760689,-0.25697 1.5760689,-0.25697" id="path1042-6" inkscape:connector-curvature="0" sodipodi:nodetypes="cszcscc" style="fill:none;stroke:&stroke_color;;stroke-width:0.63035321;stroke-linecap:butt;stroke-linejoin:miter;stroke-miterlimit:4;stroke-dasharray:none;stroke-opacity:1"/>
    <path d="m 3.180093,285.5608 -1.2544663,-0.37386 3.0836123,-1.2677 2.9294333,1.38761 -1.5779499,0.55537" id="path1078-9" inkscape:connector-curvature="0" sodipodi:nodetypes="ccccc" style="fill:#ffffff;fill-opacity:1;stroke:&stroke_color;;stroke-width:0.63035321;stroke-linecap:round;stroke-linejoin:round;stroke-miterlimit:4;stroke-dasharray:none;stroke-opacity:1"/>
    <path d="m 2.1937405,285.52498 v 1.29549" id="path1084-74" inkscape:connector-curvature="0" style="fill:none;stroke:&stroke_color;;stroke-width:0.44093415;stroke-linecap:round;stroke-linejoin:miter;stroke-miterlimit:4;stroke-dasharray:none;stroke-opacity:1"/>
    <path d="m 3.8263228,289.26619 c 2.3104813,1.16084 2.853264,-0.10207 2.8875264,-0.616 0.034267,-0.51395 -0.7623377,-1.57179 -1.7473807,-1.61034 -0.9850437,-0.0385 -1.2578224,0.10698 -1.8019349,0.74673 -0.8413184,0.98919 -0.9163958,2.91377 0.8479506,3.9248 2.1562163,1.23558 -0.7268151,1.52631 -0.7268151,1.52631" id="path50-5-2-9-7" inkscape:connector-curvature="0" inkscape:export-xdpi="96" inkscape:export-ydpi="96" sodipodi:nodetypes="cszssc" style="fill:none;fill-opacity:1;stroke:&stroke_color;;stroke-width:0.63035321;stroke-linecap:round;stroke-linejoin:round;stroke-miterlimit:4;stroke-dasharray:none;stroke-opacity:1"/>
    <path d="m 3.439233,287.49884 c 0,0 0.8383264,-0.38482 1.481544,-0.35466 0.6432176,0.0301 1.1180302,0.34738 1.1180302,0.34738 l 0.1623221,-2.03992 c 0,0 -0.8079894,-0.52857 -1.4110059,-0.43812 -0.6030165,0.0904 -1.3872311,0.48657 -1.3872311,0.48657 z" id="path2757" inkscape:connector-curvature="0" style="fill:#fffff8;fill-opacity:1;stroke:&stroke_color;;stroke-width:0.63035321;stroke-linecap:butt;stroke-linejoin:miter;stroke-miterlimit:4;stroke-dasharray:none;stroke-opacity:1"/>
    <path d="m 1.9839533,286.89272 -0.2079012,0.32629" id="path1084-7-52" inkscape:connector-curvature="0" style="fill:none;stroke:&stroke_color;;stroke-width:0.35511744;stroke-linecap:round;stroke-linejoin:miter;stroke-miterlimit:4;stroke-dasharray:none;stroke-opacity:1"/>
    <path d="M 2.6161924,287.12525 2.343088,286.85373" id="path1084-7-3-5" inkscape:connector-curvature="0" style="fill:none;stroke:&stroke_color;;stroke-width:0.37128088;stroke-linecap:round;stroke-linejoin:miter;stroke-miterlimit:4;stroke-dasharray:none;stroke-opacity:1"/>
    <path d="m 2.1947366,287.11969 0.021518,0.3863" id="path1084-7-5-4" inkscape:connector-curvature="0" style="fill:none;stroke:&stroke_color;;stroke-width:0.35511744;stroke-linecap:round;stroke-linejoin:miter;stroke-miterlimit:4;stroke-dasharray:none;stroke-opacity:1"/>
    <path d="m 8.2650379,292.75546 0.140922,-1.6099 -0.545258,1.43259 z" id="path2755" inkscape:connector-curvature="0" sodipodi:nodetypes="cccc" style="fill:&fill_color;;fill-opacity:1;stroke:none;stroke-width:0.22512613px;stroke-linecap:butt;stroke-linejoin:miter;stroke-opacity:1"/>
    <path d="m 6.8027644,291.76383 c 0,0 0.393592,0.0208 0.8919079,0.12169 m 0.9535322,0.23756 c 0.4165504,0.15664 0.6652564,0.37174 0.8869837,0.69431 0.4202588,0.61139 0.4019938,1.71961 -0.4475934,2.01154 -0.7427274,0.25522 -1.5418069,-0.0685 -1.713118,-0.95933 -0.1713117,-0.89083 1.2322622,-3.42533 1.2322622,-3.42533" id="path1199-7" inkscape:connector-curvature="0" sodipodi:nodetypes="ccccccc" style="fill:none;stroke:&stroke_color;;stroke-width:0.63035321;stroke-linecap:round;stroke-linejoin:round;stroke-miterlimit:4;stroke-dasharray:none;stroke-opacity:1"/>
    <path d="m 8.6659409,290.38215 c -0.2162241,1.23387 -0.1750284,2.14761 -0.064385,2.8701" id="path1154-4" inkscape:connector-curvature="0" sodipodi:nodetypes="cc" style="fill:none;stroke:&stroke_color;;stroke-width:0.45260674;stroke-linecap:round;stroke-linejoin:round;stroke-miterlimit:4;stroke-dasharray:none;stroke-opacity:1"/>
  </g>
</svg>