<?xml version="1.0" ?><!-- Created with Inkscape (http://www.inkscape.org/) --><!DOCTYPE svg  PUBLIC '-//W3C//DTD SVG 1.1//EN'  'http://www.w3.org/Graphics/SVG/1.1/DTD/svg11.dtd' [
	<!ENTITY stroke_color "#666666">
	<!ENTITY fill_color "#ffffff">
]><svg height="55" id="svg1127" inkscape:version="0.92.4 (unknown)" sodipodi:docname="pippy_final.svg" version="1.1" viewBox="0 0 14.552083 14.552084" width="55" xmlns="http://www.w3.org/2000/svg" xmlns:cc="http://creativecommons.org/ns#" xmlns:dc="http://purl.org/dc/elements/1.1/" xmlns:inkscape="http://www.inkscape.org/namespaces/inkscape" xmlns:rdf="http://www.w3.org/1999/02/22-rdf-syntax-ns#" xmlns:sodipodi="http://sodipodi.sourceforge.net/DTD/sodipodi-0.dtd" xmlns:svg="http://www.w3.org/2000/svg">
  <defs id="defs1121">
    <inkscape:path-effect apply_no_weight="true" apply_with_weight="true" effect="bspline" helper_size="0" id="path-effect2109" is_visible="true" only_selected="false" steps="2" weight="33.333333"/>
    <inkscape:path-effect apply_no_weight="true" apply_with_weight="true" effect="bspline" helper_size="0" id="path-effect2103" is_visible="true" only_selected="false" steps="2" weight="33.333333"/>
  </defs>
  <sodipodi:namedview bordercolor="#666666" borderopacity="1.0" id="base" inkscape:current-layer="layer1" inkscape:cx="-31.42132" inkscape:cy="72.102744" inkscape:document-units="mm" inkscape:pageopacity="0.0" inkscape:pageshadow="2" inkscape:snap-global="false" inkscape:window-height="738" inkscape:window-maximized="1" inkscape:window-width="1366" inkscape:window-x="0" inkscape:window-y="0" inkscape:zoom="2.8" pagecolor="#ffffff" showgrid="false" units="px"/>
  <metadata id="metadata1124">
    <rdf:RDF>
      <cc:Work rdf:about="">
        <dc:format>image/svg+xml</dc:format>
        <dc:type rdf:resource="http://purl.org/dc/dcmitype/StillImage"/>
        <dc:title/>
      </cc:Work>
    </rdf:RDF>
  </metadata>
  <g id="layer1" inkscape:groupmode="layer" inkscape:label="Layer 1" transform="translate(0,-282.4479)">
    <path d="m 12.440561,287.57913 c 0,0 0.721582,0.19723 0.947677,0.0577 0.226096,-0.13951 0.582076,-0.48106 0.582076,-0.48106" id="path2113" inkscape:connector-curvature="0" style="fill:none;stroke:&stroke_color;;stroke-width:0.53878051;stroke-linecap:round;stroke-linejoin:round;stroke-miterlimit:4;stroke-dasharray:none;stroke-opacity:1"/>
    <path d="m 12.483856,287.59355 c 0,0 0.683097,0.0722 0.846656,0.14432 0.163558,0.0722 0.437758,0.51473 0.437758,0.51473" id="path2115" inkscape:connector-curvature="0" style="fill:none;stroke:&stroke_color;;stroke-width:0.53878051;stroke-linecap:round;stroke-linejoin:round;stroke-miterlimit:4;stroke-dasharray:none;stroke-opacity:1"/>
    <path d="m 6.9468323,284.18982 c -2.9879159,-1.2e-4 -5.4101303,2.42209 -5.4100056,5.41001 0.00198,1.36007 0.516196,2.66949 1.4402219,3.66748 -0.04802,0.30278 -0.107842,0.60835 -0.188102,0.89193 -0.354352,1.25204 -2.17402769,2.02882 -2.17402769,2.02882 0,0 1.75900379,0.30773 2.88280679,-0.6117 0.646846,-0.52922 0.5554199,-0.83362 0.9670879,-1.17527 0.766895,0.39805 1.6179782,0.60661 2.4820187,0.60823 2.9875157,-1.6e-4 5.4093377,-2.42197 5.4095007,-5.40949 -0.0015,-0.63514 -0.114869,-1.26505 -0.334863,-1.86087 0.12954,-0.20443 0.224982,-0.3857 0.260449,-0.50539 0.133635,-0.45102 -0.723959,-2.25871 -2.0712,-2.4722 -0.101474,-0.0161 -0.2196185,-0.0192 -0.3452017,-0.0165 -0.311589,-0.0792 -0.662049,-0.14501 -1.002006,-0.19689 -0.6119292,-0.23448 -1.261369,-0.35582 -1.916679,-0.35812 z m -1.324984,4.34082 c 0.270181,0.11712 0.743188,0.30826 1.56528,0.6072 1.14938,0.41796 2.018816,0.43731 2.658752,0.32246 0.00852,0.076 0.013172,0.15243 0.01395,0.22893 -5.04e-5,1.25457 -1.0207813,2.2716 -2.279964,2.2717 -1.2591827,-1e-4 -2.2799136,-1.01713 -2.279964,-2.2717 9.484e-4,-0.40799 0.1121566,-0.8082 0.321943,-1.15859 z" id="path2036" inkscape:connector-curvature="0" sodipodi:nodetypes="cccccccccccccccccccccccc" style="fill:&fill_color;;fill-opacity:1;stroke:none;stroke-width:0.92604166;stroke-linecap:round;stroke-linejoin:round;stroke-miterlimit:4;stroke-dasharray:none;stroke-opacity:1"/>
    <path d="m 2.8230342,292.85731 c 0,0 -0.083522,1.45327 -0.8018084,2.13815 -0.7182869,0.68488 -1.82077367,1.11919 -1.82077367,1.11919 0,0 0.97075737,0.45894 2.35531267,-0.0167 1.5407836,-0.52931 1.9209996,-1.60362 2.0379301,-1.80407" id="path2111" inkscape:connector-curvature="0" sodipodi:nodetypes="cscsc" style="fill:none;stroke:&stroke_color;;stroke-width:0.52916667;stroke-linecap:round;stroke-linejoin:round;stroke-miterlimit:4;stroke-dasharray:none;stroke-opacity:1;fill-opacity:1"/>
    <path d="m 4.7607383,288.24691 c 0,0 2.0352978,1.46502 3.5413214,1.38646 1.5060234,-0.0786 3.5580253,-0.80181 3.7584773,-2.15486 0.200452,-1.35306 -1.152599,-2.90656 -3.5246165,-3.50792 -2.3720171,-0.60135 -3.1404168,0.65147 -3.5580257,0.90204" id="path2097" inkscape:connector-curvature="0" sodipodi:nodetypes="ccccc" style="fill:none;stroke:&stroke_color;;stroke-width:0.92604166;stroke-linecap:round;stroke-linejoin:round;stroke-miterlimit:4;stroke-dasharray:none;stroke-opacity:1"/>
    <path d="m 5.2618687,288.48077 c -0.044508,0.35606 -0.089053,0.71242 -0.072357,1.06341 0.016696,0.35098 0.094586,0.69592 0.2561404,1.02182 0.1615544,0.3259 0.4064113,0.63197 0.7294638,0.86589 0.3230525,0.23391 0.7239149,0.39537 1.1582366,0.41759 0.4343217,0.0222 0.9022019,-0.0947 1.3001933,-0.30353 0.3979915,-0.20879 0.7267289,-0.50967 0.9353983,-0.8325 0.2086695,-0.32284 0.2978357,-0.66836 0.3479113,-0.94109 0.050076,-0.27272 0.061222,-0.47335 0.072343,-0.67353" id="path2101" inkscape:connector-curvature="0" inkscape:original-d="m 5.2618687,288.48077 c -0.04428,0.35609 -0.088825,0.71245 -0.1336347,1.06908 0.078282,0.34524 0.1561719,0.69018 0.2338607,1.03566 0.2454,0.30616 0.4902589,0.61223 0.7349913,0.91874 0.401211,0.16123 0.8020733,0.32269 1.2027128,0.48443 0.4678278,-0.11716 0.9357079,-0.23413 1.403165,-0.35079 0.3285649,-0.30074 0.6573023,-0.60162 0.9855565,-0.90204 0.08928,-0.34519 0.1784443,-0.69071 0.2672694,-1.03567 0.01139,-0.20053 0.022537,-0.40116 0.033409,-0.60135" inkscape:path-effect="#path-effect2103" style="fill:none;stroke:&stroke_color;;stroke-width:0.46302083;stroke-linecap:round;stroke-linejoin:round;stroke-opacity:1;stroke-miterlimit:4;stroke-dasharray:none"/>
    <circle cx="7.5534759" cy="286.45691" id="path2105" r="0.67652601" style="fill:&fill_color;;fill-opacity:1;stroke:&stroke_color;;stroke-width:0.92604166;stroke-linecap:round;stroke-linejoin:round;stroke-miterlimit:4;stroke-dasharray:none;stroke-opacity:1"/>
    <path d="m 4.5686383,288.22185 c 0,0 0.3263677,0.2773 0.434313,0.73499 0.1022643,0.4336 0.1921001,0.98555 0.1921001,0.98555" id="path2140" inkscape:connector-curvature="0" sodipodi:nodetypes="csc" style="fill:none;stroke:&stroke_color;;stroke-width:0.396875;stroke-linecap:round;stroke-linejoin:round;stroke-opacity:1;stroke-miterlimit:4;stroke-dasharray:none"/>
    <path d="m 4.8534342,284.96841 c -1.8309988,0.82439 -3.0049706,2.61405 -3.0075748,4.58489 1.667e-4,2.7916 2.3148724,5.05456 5.1701758,5.0546 2.8553035,-4e-5 5.1700088,-2.263 5.1701758,-5.0546 -0.0015,-0.75308 -0.03334,-1.13015 -0.366325,-1.80923" id="path30" inkscape:connector-curvature="0" sodipodi:nodetypes="ccccc" style="fill:none;stroke:&stroke_color;;stroke-width:0.84567398;stroke-miterlimit:4;stroke-dasharray:none;stroke-opacity:1"/>
  </g>
</svg>