<?xml version="1.0" ?><!-- Created with Inkscape (http://www.inkscape.org/) --><!DOCTYPE svg  PUBLIC '-//W3C//DTD SVG 1.1//EN'  'http://www.w3.org/Graphics/SVG/1.1/DTD/svg11.dtd' [
	<!ENTITY stroke_color "#666666">
	<!ENTITY fill_color "#ffffff">
]><svg height="55" id="svg1756" inkscape:version="0.92.4 (unknown)" sodipodi:docname="pippy-collect.svg" version="1.1" viewBox="0 0 14.552083 14.552084" width="55" xmlns="http://www.w3.org/2000/svg" xmlns:cc="http://creativecommons.org/ns#" xmlns:dc="http://purl.org/dc/elements/1.1/" xmlns:inkscape="http://www.inkscape.org/namespaces/inkscape" xmlns:rdf="http://www.w3.org/1999/02/22-rdf-syntax-ns#" xmlns:sodipodi="http://sodipodi.sourceforge.net/DTD/sodipodi-0.dtd" xmlns:svg="http://www.w3.org/2000/svg">
  <defs id="defs1750"/>
  <sodipodi:namedview bordercolor="#666666" borderopacity="1.0" id="base" inkscape:current-layer="layer1" inkscape:cx="35.376545" inkscape:cy="3.1492079" inkscape:document-units="mm" inkscape:pageopacity="0.0" inkscape:pageshadow="2" inkscape:snap-global="false" inkscape:window-height="738" inkscape:window-maximized="1" inkscape:window-width="1366" inkscape:window-x="0" inkscape:window-y="0" inkscape:zoom="7.9195959" pagecolor="#ffffff" showgrid="false" units="px"/>
  <metadata id="metadata1753">
    <rdf:RDF>
      <cc:Work rdf:about="">
        <dc:format>image/svg+xml</dc:format>
        <dc:type rdf:resource="http://purl.org/dc/dcmitype/StillImage"/>
        <dc:title/>
      </cc:Work>
    </rdf:RDF>
  </metadata>
  <g id="layer1" inkscape:groupmode="layer" inkscape:label="Layer 1" transform="translate(0,-282.4479)">
    <path d="m 15.083984,19.023438 -7.1503902,0.01953 c -0.6162547,0.0017 -2.3496094,1.629453 -2.3496094,2.458984 v 19.201172 c 0,1.36218 -0.2112673,2.029297 1.0898437,2.029297 l 1.1445313,-1.0625 c -0.4502491,0 -0.7091919,-0.08042 -0.8574219,-0.242188 l 0.9121094,-1.207031 v -0.07422 c -0.1853292,0 -0.3111522,0.01027 -0.4003907,0.02539 0.1144824,-0.09437 2.2447243,-0.299954 2.2460938,-0.71875 0.346719,-0.357527 -1.3764103,1.369785 -0.7441406,0.666016 l 0.021484,-16.453125 c 0.00165,-1.068057 0.903679,-1.946557 2.0253906,-1.927735 l 3.330078,0.02148 c 0.168594,-0.414794 0.304589,-0.7268 0.480469,-1.132813 h 0.0039 l 0.824218,-1.082031 -0.976562,0.0039 z m 14.640625,0.01953 0.582032,0.521484 h -0.638672 l 1.183593,1.064453 h -0.683593 c 0.114937,0.23283 0.167344,0.409879 0.335937,1.013672 l 15.810547,0.09375 c 1.121836,0.0076 2.025391,0.859716 2.025391,1.927734 v 15.056641 c 0,2.090041 -1.374469,1.585557 -3.484375,1.574219 0.420055,0.952863 -1.516489,1.097266 -1.304688,1.511719 -0.179027,-0.0078 1.694099,-0.01028 1.498047,-0.01953 l -0.171875,0.261719 c -0.139049,-0.0076 -0.240175,-0.0099 -0.386719,-0.01367 l 0.205078,0.296875 -0.18164,0.28125 c 0.138822,3.03e-4 0.240725,0.0014 0.373047,0.002 l 0.357422,0.519532 c 5.161228,0.01134 5.970703,0.235975 5.970703,-2.429688 V 21.503906 c 0,-0.608882 -1.694187,-2.458984 -2.34961,-2.458984 z" id="rect1226-2-4-6-9" inkscape:connector-curvature="0" sodipodi:nodetypes="ccsscccccccccccccccccccccccsscccccccccsscc" style="fill:&fill_color;;fill-opacity:1;stroke:&stroke_color;;stroke-width:0.49712312;stroke-linecap:round;stroke-linejoin:round;stroke-miterlimit:4;stroke-dasharray:none;stroke-opacity:1" transform="matrix(0.26458333,0,0,0.26458333,0,282.4479)"/>
    <path d="m 6.1456157,289.7215 c 0,0 1.9529704,0.20134 2.0536381,-0.80534 0.1006702,-1.0067 -0.5838758,-1.91271 -1.0066845,-2.05365 -0.4228078,-0.14093 -1.6912322,-0.28187 -2.3153771,0.0604 -0.6241457,0.34227 -1.1476219,1.12749 -1.2885577,1.4899 -0.1409363,0.36241 -0.2617382,1.36909 0,1.95297 0.2617382,0.58387 1.3288252,1.63083 1.3288252,1.63083 0,0 -1.4496275,0.1208 -2.0939064,0.68455 -0.6442792,0.56374 -1.1274883,0.88587 -1.067087,1.71136 0.060401,0.82548 0.6845461,1.42949 1.3288251,1.55029 0.6442789,0.1208 1.9529705,0.38254 2.5569817,0.26174 0.6040112,-0.1208 2.0133706,-0.22146 2.3556453,-0.66441 0.3422722,-0.44294 0.4832081,-1.32882 0.6644115,-1.44962 0.1812025,-0.12081 0.4228078,0.1208 0.4630752,0.48321 0.040264,0.3624 0.0604,0.74494 0.2818728,0.86575 0.2214699,0.1208 0.8456161,0.66441 1.4898941,0.40267 0.644279,-0.26175 1.02682,-0.68455 1.006687,-1.12749 -0.02014,-0.44294 -0.04026,-1.53016 -1.107355,-1.95297 -1.0670868,-0.42281 -2.5167145,-0.60402 -2.5167145,-0.60402 0,0 -0.2617382,-0.56373 -0.7852146,-0.84561 -0.5234772,-0.28187 -1.2482906,-0.68455 -1.3690929,-0.90602 -0.1208022,-0.22146 0.020136,-0.68454 0.020136,-0.68454 z" id="path1265-5" inkscape:connector-curvature="0" style="fill:&fill_color;;fill-opacity:1;stroke:none;stroke-width:0.03986272px;stroke-linecap:butt;stroke-linejoin:miter;stroke-opacity:1"/>
    <ellipse cx="6.44453" cy="287.93771" id="path894-6-7-3-6" inkscape:export-xdpi="96" inkscape:export-ydpi="96" rx="0.26140302" ry="0.2624104" style="fill:#fffff8;fill-opacity:1;stroke:&stroke_color;;stroke-width:0.31364581;stroke-miterlimit:4;stroke-dasharray:none;stroke-opacity:1"/>
    <path d="m 5.7963303,288.66273 c 0,0 0.54361,0.38254 1.0066853,0.46308 0.4630752,0.0805 1.0972865,-0.0403 1.0972865,-0.0403" id="path896-2-0-6-5" inkscape:connector-curvature="0" inkscape:export-xdpi="96" inkscape:export-ydpi="96" sodipodi:nodetypes="csc" style="fill:none;fill-opacity:1;stroke:&stroke_color;;stroke-width:0.34125009;stroke-linecap:round;stroke-linejoin:miter;stroke-miterlimit:4;stroke-dasharray:none;stroke-opacity:1"/>
    <path d="m 6.1456157,289.7215 c 0,0 -0.5033426,0.58388 0.543611,1.10735 1.0469518,0.52348 2.1448234,1.36443 1.9328349,3.06033 -0.2119868,1.69589 -0.9462833,1.95297 -1.9932369,2.13417 -1.0469527,0.1812 -3.5233995,0.42281 -4.4495506,-0.70468 -0.9261508,-1.12749 0.1208025,-2.57711 1.1073545,-2.93952 0.9865525,-0.36241 1.8523018,-0.302 1.8523018,-0.302" id="path1042-6" inkscape:connector-curvature="0" sodipodi:nodetypes="cszcscc" style="fill:none;stroke:&stroke_color;;stroke-width:0.74083333;stroke-linecap:butt;stroke-linejoin:miter;stroke-miterlimit:4;stroke-dasharray:none;stroke-opacity:1"/>
    <path d="m 4.1196698,284.86075 -1.4743328,-0.43939 3.6240678,-1.48989 3.4428664,1.63082 -1.8545125,0.65271" id="path1078-9" inkscape:connector-curvature="0" sodipodi:nodetypes="ccccc" style="fill:#ffffff;fill-opacity:1;stroke:&stroke_color;;stroke-width:0.74083333;stroke-linecap:round;stroke-linejoin:round;stroke-miterlimit:4;stroke-dasharray:none;stroke-opacity:1"/>
    <path d="m 2.9604423,284.81865 v 1.52255" id="path1084-74" inkscape:connector-curvature="0" style="fill:none;stroke:&stroke_color;;stroke-width:0.51821536;stroke-linecap:round;stroke-linejoin:miter;stroke-miterlimit:4;stroke-dasharray:none;stroke-opacity:1"/>
    <path d="m 4.8791624,289.21557 c 2.7154325,1.3643 3.3533472,-0.11996 3.3936146,-0.72397 0.040273,-0.60402 -0.8959504,-1.84727 -2.0536389,-1.89257 -1.1576894,-0.0453 -1.4782772,0.12572 -2.1177547,0.8776 -0.9887738,1.16257 -1.0770098,3.42446 0.9965684,4.61269 2.5341299,1.45214 -0.8542018,1.79382 -0.8542018,1.79382" id="path50-5-2-9-7" inkscape:connector-curvature="0" inkscape:export-xdpi="96" inkscape:export-ydpi="96" sodipodi:nodetypes="cszssc" style="fill:none;fill-opacity:1;stroke:&stroke_color;;stroke-width:0.74083333;stroke-linecap:round;stroke-linejoin:round;stroke-miterlimit:4;stroke-dasharray:none;stroke-opacity:1"/>
    <path d="m 4.4242285,287.13846 c 0,0 0.9852574,-0.45226 1.7412099,-0.41682 0.7559524,0.0354 1.313984,0.40827 1.313984,0.40827 l 0.1907718,-2.39746 c 0,0 -0.9496033,-0.62121 -1.6583087,-0.5149 -0.7087054,0.1063 -1.630367,0.57185 -1.630367,0.57185 z" id="path2757" inkscape:connector-curvature="0" style="fill:#fffff8;stroke:&stroke_color;;stroke-width:0.74083333;stroke-linecap:butt;stroke-linejoin:miter;stroke-miterlimit:4;stroke-dasharray:none;stroke-opacity:1;fill-opacity:1"/>
    <path d="m 2.7138863,286.42611 -0.2443395,0.38348" id="path1084-7-52" inkscape:connector-curvature="0" style="fill:none;stroke:&stroke_color;;stroke-width:0.41735783;stroke-linecap:round;stroke-linejoin:miter;stroke-miterlimit:4;stroke-dasharray:none;stroke-opacity:1"/>
    <path d="m 3.4569361,286.69939 -0.3209707,-0.3191" id="path1084-7-3-5" inkscape:connector-curvature="0" style="fill:none;stroke:&stroke_color;;stroke-width:0.43635419;stroke-linecap:round;stroke-linejoin:miter;stroke-miterlimit:4;stroke-dasharray:none;stroke-opacity:1"/>
    <path d="m 2.9616129,286.69286 0.025289,0.454" id="path1084-7-5-4" inkscape:connector-curvature="0" style="fill:none;stroke:&stroke_color;;stroke-width:0.41735783;stroke-linecap:round;stroke-linejoin:miter;stroke-miterlimit:4;stroke-dasharray:none;stroke-opacity:1"/>
    <path d="m 10.095838,293.31639 0.02388,-1.79757 -0.4990828,1.58919 z" id="path2755" inkscape:connector-curvature="0" sodipodi:nodetypes="cccc" style="fill:&fill_color;;fill-opacity:1;stroke:none;stroke-width:0.26458332px;stroke-linecap:butt;stroke-linejoin:miter;stroke-opacity:1"/>
    <path d="m 8.3772761,292.15096 c 0,0 0.4625757,0.0244 1.04823,0.14302 m 0.9552899,0.26739 c 0.489558,0.18409 0.947219,0.4487 1.207808,0.82781 0.493916,0.71854 0.47245,2.021 -0.526042,2.3641 -0.872903,0.29995 -1.8120349,-0.0805 -2.0133711,-1.12748 -0.201337,-1.04696 1.4482371,-4.02567 1.4482371,-4.02567" id="path1199-7" inkscape:connector-curvature="0" sodipodi:nodetypes="ccccccc" style="fill:none;stroke:&stroke_color;;stroke-width:0.74083333;stroke-linecap:round;stroke-linejoin:round;stroke-miterlimit:4;stroke-dasharray:none;stroke-opacity:1"/>
    <path d="m 9.4861752,290.9827 0.2894397,-2.16428 c 0,0 1.0209291,-0.57258 1.3464541,0.20891 0.325524,0.78148 -1.4806527,1.01305 -1.4806527,1.01305" id="path1158-4" inkscape:connector-curvature="0" style="fill:none;stroke:&stroke_color;;stroke-width:0.51821536;stroke-linecap:round;stroke-linejoin:round;stroke-miterlimit:4;stroke-dasharray:none;stroke-opacity:1"/>
    <path d="m 10.551717,290.67112 c -0.465359,1.41023 -0.349003,2.48773 -0.07824,3.35258" id="path1154-4" inkscape:connector-curvature="0" sodipodi:nodetypes="cc" style="fill:none;stroke:&stroke_color;;stroke-width:0.74083333;stroke-linecap:round;stroke-linejoin:round;stroke-miterlimit:4;stroke-dasharray:none;stroke-opacity:1"/>
  </g>
</svg>