<?xml version="1.0" encoding="UTF-8" standalone="no"?>
<!DOCTYPE svg PUBLIC "-//W3C//DTD SVG 1.1//EN" "http://www.w3.org/Graphics/SVG/1.1/DTD/svg11.dtd" [
        <!ENTITY ns_svg "http://www.w3.org/2000/svg">
        <!ENTITY ns_xlink "http://www.w3.org/1999/xlink">
        <!ENTITY stroke_color "#000000">
        <!ENTITY fill_color "#FFFFFF">
]><!--"-->
<svg  version="1.1" id="Pippy_activity" xmlns="&ns_svg;" xmlns:xlink="&ns_xlink;" width="47.585" height="49.326"
         viewBox="0 0 47.585 49.326" overflow="visible" enable-background="new 0 0 47.585 49.326" xml:space="preserve">

<path
   fill="&fill_color;" stroke="&stroke_color;" stroke-width="2"   d="M 30.689595,16.460324 L 24.320145,12.001708 L 2.7550028,23.830689 L 23.319231,38.662412 L 45.157349,26.742438 L 36.877062,21.100925"   id="path3195" />
<path
   fill="&fill_color;" stroke="&stroke_color;" stroke-width="2"
   nodetypes="cscscssscsssssccc"
   d="M 12.201296,21.930888 C 13.063838,20.435352 17.035411,18.617621 20.372026,18.965837 C 22.109464,19.147161 24.231003,20.786115 24.317406,21.584638 C 24.401593,22.43057 25.386617,24.647417 26.88611,24.600494 C 28.114098,24.562065 28.61488,23.562481 28.992123,22.444401 C 28.992123,22.444401 28.564434,17.493894 31.897757,15.363536 C 32.836646,14.763482 35.806711,14.411448 37.249047,15.221493 C 38.691382,16.031536 37.648261,19.495598 36.785717,20.991133 C 35.923174,22.48667 32.967872,24.980813 32.967872,24.980813 C 31.242783,27.971884 29.235995,28.5001 26.338769,28.187547 C 23.859153,27.920046 22.434219,26.128159 21.837191,24.708088 C 21.323835,23.487033 20.047743,22.524906 18.388178,22.52176 C 17.218719,22.519542 14.854476,23.017137 16.212763,25.620664 C 16.687174,26.53 18.919175,28.917592 21.08204,29.521929 C 22.919903,30.035455 26.713699,31.223552 30.30027,31.418089 C 26.770532,33.262079 21.760623,32.530604 18.909599,31.658168 C 17.361253,30.887002 9.0350995,26.651992 12.201296,21.930888 z "
   id="path2209" />
<path
   fill="&fill_color;" stroke="&stroke_color;" stroke-width="1"
   d="M 37.832194,18.895786 C 36.495131,19.851587 34.017797,22.097672 32.3528,21.069911"
   id="path2211"
   transform-center-y="-3.6171625"
   transform-center-x="-0.50601649" />
<circle
   fill="&stroke_color;" stroke="none" stroke-width="0"
   cx="33.926998"
   cy="6.073"
   r="1.927"
   id="circle2213"
   transform="matrix(0.269108,-0.4665976,-0.472839,-0.2655557,26.503175,35.608682)"
   />
</svg>
