<?xml version="1.0" encoding="utf-8"?>
<!DOCTYPE svg PUBLIC "-//W3C//DTD SVG 1.1//EN" "http://www.w3.org/Graphics/SVG/1.1/DTD/svg11.dtd" [
        <!ENTITY ns_svg "http://www.w3.org/2000/svg">
        <!ENTITY ns_xlink "http://www.w3.org/1999/xlink">
        <!ENTITY stroke_color "#000000">
        <!ENTITY fill_color "#FFFFFF">  
]>
<svg  version="1.1" id="Pippy" xmlns="&ns_svg;" xmlns:xlink="&ns_xlink;" width="47.585" height="49.326"
         viewBox="0 0 47.585 49.326" overflow="visible" enable-background="new 0 0 47.585 49.326" xml:space="preserve">
<path fill="&fill_color;" stroke="&stroke_color;" stroke-width="3"
     d="M 25.630734,47.969739 C 28.835927,47.969739 39.574954,45.982358 39.574954,36.384523 C 39.574954,25.70822 30.667585,23.884193 26.97673,23.267922 C 24.904741,23.113855 21.370339,21.644578 21.20738,19.873993 C 20.92777,16.835995 23.239084,14.416202 26.444277,14.416202 C 26.444277,14.416202 34.069418,19.66043 40.548611,16.298359 C 42.373591,15.351372 45.64374,10.931172 45.64374,7.8808001 C 45.64374,4.8304277 35.087684,1.3052415 31.882489,1.3052415 C 28.677296,1.3052415 25.952881,5.7282832 25.952881,5.7282832 C 19.542492,5.7282832 13.132104,11.829026 13.132104,17.929768 C 13.132104,24.030516 18.193759,28.802583 26.59392,30.13126 C 30.000285,30.670054 32.20301,33.334152 32.20301,36.384523 C 32.20301,39.434896 29.516017,42.485265 22.587427,42.485265 C 17.699098,42.485265 6.5614552,42.485265 6.5614552,36.384523 C 6.5614552,33.334152 8.1640527,31.808964 9.7666501,31.808964 L 9.7365639,31.625484 C 8.103875,31.442005 3.3562612,31.808964 3.3562612,37.909708 C 3.3562612,44.010454 12.809956,47.969739 25.630734,47.969739 z " />
<path fill="&fill_color;" stroke="&stroke_color;" stroke-width="3"
   d="M 42.14642,14.28258 C 39.129712,13.952862 32.946282,13.998045 31.962494,10.524921" />
<circle fill="&stroke_color;"
   cx="33.927"
   cy="6.073"
   r="1.927" />
</svg>
